<svg width="14" height="14" viewBox="0 0 14 14" fill="none" xmlns="http://www.w3.org/2000/svg">
<path d="M13.1892 5.16515L9.22203 4.58859L7.44859 0.99328C7.40015 0.894842 7.32046 0.815155 7.22203 0.766717C6.97515 0.644842 6.67515 0.746405 6.55171 0.99328L4.77828 4.58859L0.811089 5.16515C0.701714 5.18078 0.601714 5.23234 0.525151 5.31047C0.432592 5.4056 0.381587 5.53359 0.383345 5.66631C0.385103 5.79904 0.439479 5.92563 0.534526 6.01828L3.40484 8.81672L2.72671 12.7683C2.71081 12.8602 2.72098 12.9547 2.75608 13.0412C2.79117 13.1276 2.84978 13.2025 2.92526 13.2573C3.00074 13.3121 3.09007 13.3447 3.18312 13.3513C3.27617 13.358 3.36922 13.3384 3.45171 13.2948L7.00015 11.4292L10.5486 13.2948C10.6455 13.3464 10.758 13.3636 10.8658 13.3448C11.1377 13.298 11.3205 13.0402 11.2736 12.7683L10.5955 8.81672L13.4658 6.01828C13.5439 5.94172 13.5955 5.84172 13.6111 5.73234C13.6533 5.4589 13.4627 5.20578 13.1892 5.16515Z" fill="#FEA250"/>
</svg>
